<svg width="15" height="15" viewBox="0 0 8 8" fill="none" xmlns="http://www.w3.org/2000/svg">
<path d="M4.53063 3.99994L6.89006 6.35946C7.03665 6.50593 7.03665 6.74358 6.89006 6.89005C6.74347 7.03665 6.50608 7.03665 6.35949 6.89005L4.00006 4.53053L1.64051 6.89005C1.49392 7.03665 1.25653 7.03665 1.10994 6.89005C0.963353 6.74358 0.963353 6.50593 1.10994 6.35946L3.46949 3.99994L1.10994 1.64041C0.963353 1.49394 0.963353 1.25629 1.10994 1.10982C1.18324 1.03665 1.27929 1 1.37523 1C1.47116 1 1.56722 1.03665 1.64051 1.10995L4.00006 3.46947L6.35949 1.10995C6.43278 1.03665 6.52884 1 6.62477 1C6.72071 1 6.81676 1.03665 6.89006 1.10995C7.03665 1.25642 7.03665 1.49407 6.89006 1.64054L4.53063 3.99994Z" fill="black" fill-opacity="0.75"/>
<path d="M1.03929 1.03905L1.03926 1.03908C0.85359 1.2246 0.85358 1.52559 1.03923 1.71112C1.03924 1.71113 1.03925 1.71114 1.03926 1.71115L3.32807 3.99994L1.03926 6.28872C1.03925 6.28873 1.03924 6.28874 1.03923 6.28875C0.85359 6.47427 0.85359 6.77524 1.03923 6.96076L1.03929 1.03905ZM1.03929 1.03905C1.13206 0.946437 1.25385 0.9 1.37523 0.9C1.49662 0.9 1.61844 0.946446 1.71122 1.03924L4.00006 3.32805M1.03929 1.03905L4.00006 3.32805M4.67205 3.99994L6.96074 1.71128C6.96075 1.71127 6.96076 1.71126 6.96077 1.71125C7.14641 1.52573 7.14641 1.22476 6.96077 1.03924L4.67205 3.99994ZM4.67205 3.99994L6.96074 6.28872C6.96075 6.28873 6.96076 6.28874 6.96077 6.28875C7.14641 6.47427 7.14641 6.77524 6.96077 6.96076C6.77513 7.14641 6.47442 7.14641 6.28878 6.96076L4.00006 4.67195L1.71122 6.96076C1.71122 6.96076 1.71122 6.96076 1.71122 6.96077C1.52559 7.1464 1.2249 7.14641 1.03926 6.96079L4.67205 3.99994ZM4.00006 3.32805L6.28878 1.03924C6.38156 0.946446 6.50338 0.9 6.62477 0.9C6.74615 0.9 6.86796 0.946436 6.96074 1.03921L4.00006 3.32805Z" stroke="black" stroke-opacity="0.75" stroke-width="0.2"/>
</svg>
