<svg width="22" height="22" viewBox="0 0 22 22" fill="none" xmlns="http://www.w3.org/2000/svg">
<path d="M12.9462 11.0002L21.5978 2.34864C22.1353 1.81159 22.1353 0.940191 21.5978 0.403135C21.0603 -0.134378 20.1898 -0.134378 19.6523 0.403135L11.0007 9.05472L2.34864 0.403135C1.81113 -0.134378 0.940649 -0.134378 0.403135 0.403135C-0.134378 0.940191 -0.134378 1.81159 0.403135 2.34864L9.05518 11.0002L0.403135 19.6518C-0.134378 20.1889 -0.134378 21.0603 0.403135 21.5973C0.671892 21.8656 1.02412 22 1.37589 22C1.72766 22 2.07989 21.8656 2.34864 21.5969L11.0007 12.9453L19.6523 21.5969C19.921 21.8656 20.2733 22 20.625 22C20.9768 22 21.329 21.8656 21.5978 21.5969C22.1353 21.0598 22.1353 20.1884 21.5978 19.6514L12.9462 11.0002Z" fill="black" fill-opacity="0.75"/>
</svg>
